HIERARCHY
ROOT Hips
{
  OFFSET 0 89.5177 0.535
  CHANNELS 6 Xposition Yposition Zposition Zrotation Xrotation Yrotation
  JOINT Spine
  {
    OFFSET 12.0259 -0.162855 1.69034e-005
    CHANNELS 3 Zrotation Xrotation Yrotation
    JOINT Spine1
    {
      OFFSET 15.3169 -0.0121922 0
      CHANNELS 3 Zrotation Xrotation Yrotation
      JOINT Spine2
      {
        OFFSET 15.3176 -0.0121908 0
        CHANNELS 3 Zrotation Xrotation Yrotation
        JOINT Neck
        {
          OFFSET 19.9142 1.56338 0
          CHANNELS 3 Zrotation Xrotation Yrotation
          JOINT Head
          {
            OFFSET 6.92651 0 0
            CHANNELS 3 Zrotation Xrotation Yrotation
            End Site
            {
              OFFSET 20.7666 0 0
            }
          }
          JOINT LeftShoulder
          {
            OFFSET -6.20654 0.708824 7.28219
            CHANNELS 3 Zrotation Xrotation Yrotation
            JOINT LeftArm
            {
              OFFSET 14.108 0 -1.52588e-005
              CHANNELS 3 Zrotation Xrotation Yrotation
              JOINT LeftForeArm
              {
                OFFSET 28.5802 0 0
                CHANNELS 3 Zrotation Xrotation Yrotation
                JOINT LeftHand
                {
                  OFFSET 27.092 0 0
                  CHANNELS 3 Zrotation Xrotation Yrotation
                  End Site
                  {
                    OFFSET 9.55928 -0.186424 0.145352
                  }
                }
              }
            }
          }
          JOINT RightShoulder
          {
            OFFSET -6.20654 0.708866 -7.28218
            CHANNELS 3 Zrotation Xrotation Yrotation
            JOINT RightArm
            {
              OFFSET 14.108 0 1.52588e-005
              CHANNELS 3 Zrotation Xrotation Yrotation
              JOINT RightForeArm
              {
                OFFSET 28.5802 0 0
                CHANNELS 3 Zrotation Xrotation Yrotation
                JOINT RightHand
                {
                  OFFSET 27.092 0 0
                  CHANNELS 3 Zrotation Xrotation Yrotation
                  End Site
                  {
                    OFFSET 9.55929 -0.186417 -0.145354
                  }
                }
              }
            }
          }
        }
      }
    }
  }
  JOINT LeftUpLeg
  {
    OFFSET 0.005 -0.535 8.837
    CHANNELS 3 Zrotation Xrotation Yrotation
    JOINT LeftLeg
    {
      OFFSET 39.9035 0 0
      CHANNELS 3 Zrotation Xrotation Yrotation
      JOINT LeftFoot
      {
        OFFSET 39.6689 0 0
        CHANNELS 3 Zrotation Xrotation Yrotation
        JOINT LeftToe
        {
          OFFSET 10.1624 13.6296 0
          CHANNELS 3 Zrotation Xrotation Yrotation
          End Site
          {
            OFFSET 8.38147 0 0
          }
        }
      }
    }
  }
  JOINT RightUpLeg
  {
    OFFSET 0.005 -0.535 -8.837
    CHANNELS 3 Zrotation Xrotation Yrotation
    JOINT RightLeg
    {
      OFFSET 39.9035 0 0
      CHANNELS 3 Zrotation Xrotation Yrotation
      JOINT RightFoot
      {
        OFFSET 39.6689 0 0
        CHANNELS 3 Zrotation Xrotation Yrotation
        JOINT RightToe
        {
          OFFSET 10.1624 13.6296 0
          CHANNELS 3 Zrotation Xrotation Yrotation
          End Site
          {
            OFFSET 8.38147 0 0
          }
        }
      }
    }
  }
}
MOTION
Frames:	7
Frame Time:	0.0333333
506.448 89.8941 -135.187 147.647 -81.4953 56.7609 -1.71192 -0.0126748 -0.976151 -3.42381 0.00427975 -1.95205 -3.42381 0.00428001 -1.95206 -8.30708e-012 -9.0191e-006 -5.27751e-005 13.5377 5.74402 -2.88441 -179.866 -10.7862 -89.2827 -26.0944 -59.3891 0.613981 -4.0339e-006 0 -0 -44.1124 -17.3654 -37.0035 -179.994 5.78362 89.9422 49.1145 62.5447 -62.9022 -1.38812 1.59028e-015 1.59028e-015 -33.5028 21.4507 23.674 -10.0468 1.53647 -178.958 -19.168 7.95139e-016 1.98785e-016 22.5135 6.30194 -12.9334 90 -1.26725e-015 5.96354e-016 -9.68647 -5.29374 179.133 -18.1012 -9.93923e-017 7.45443e-017 14.7353 -2.28438 4.57374 90 -5.684e-016 -1.98785e-016 
506.436 89.8915 -135.255 148.063 -81.5387 57.1628 -1.72279 -0.020844 -0.967835 -3.44568 -0.0121187 -1.93567 -3.44568 -0.0121184 -1.93568 -8.30748e-012 -9.0191e-006 -5.27751e-005 13.6194 5.78593 -2.92448 -179.868 -10.8445 -89.2981 -26.1931 -59.5156 0.587692 -5.43899e-006 9.54166e-015 -0 -44.0587 -17.3532 -36.9713 180 5.79619 90.0021 49.3148 62.6227 -63.1074 -1.34084 -1.59028e-015 -1.59028e-015 -33.5857 21.3526 23.6199 -9.98967 1.58427 -178.946 -19.1709 2.38542e-015 9.93923e-016 22.5443 6.28642 -12.9016 90 2.5842e-015 -1.98785e-016 -9.63473 -5.2873 179.135 -18.0864 -9.93923e-017 3.72721e-016 14.7857 -2.32633 4.65853 90 1.45982e-016 1.98785e-016 
506.426 89.8915 -135.323 148.654 -81.5635 57.7719 -1.74037 -0.02309 -0.968792 -3.48087 -0.0162835 -1.93765 -3.48087 -0.0162832 -1.93766 -8.30708e-012 -9.0191e-006 -5.27751e-005 13.666 5.79051 -2.93462 -179.876 -10.8569 -89.3406 -26.2268 -59.4963 0.575567 -5.57774e-006 6.36111e-015 3.18055e-015 -44.1212 -17.2526 -36.8444 179.995 5.84012 90.048 49.2928 62.6628 -63.1298 -1.40325 0 -0 -33.4932 21.4515 23.712 -9.89158 1.43973 -179.02 -19.0482 -7.95139e-016 -5.96354e-016 22.4405 6.14149 -12.5962 90 -5.71506e-016 -1.98785e-016 -9.59041 -5.2064 179.126 -18.0166 0 -9.93923e-017 14.7758 -2.32775 4.66156 90 6.21202e-016 3.97569e-016 
506.419 89.8888 -135.382 149.219 -81.5742 58.3076 -1.76024 -0.0325389 -0.958248 -3.52078 -0.0351633 -1.91685 -3.52078 -0.035163 -1.91686 -8.30748e-012 -9.0191e-006 -5.27751e-005 13.6475 5.80179 -2.9497 -179.883 -10.9064 -89.3827 -26.2574 -59.6034 0.595307 -5.71512e-006 3.18055e-015 1.59028e-015 -44.1146 -17.2201 -36.8256 179.988 5.86324 90.1172 49.3803 62.7164 -63.245 -1.4598 0 -1.59028e-015 -33.5369 21.4405 23.7153 -9.89063 1.62028 -178.956 -19.0578 -7.95139e-016 -1.98785e-016 22.51 6.21524 -12.7525 90 -2.16178e-015 1.98785e-016 -9.57449 -5.12015 179.161 -17.9876 1.98785e-016 2.48481e-017 14.7577 -2.32297 4.652 90 1.02498e-016 -3.97569e-016 
506.41 89.8879 -135.443 149.675 -81.6333 58.762 -1.77135 -0.036077 -0.952078 -3.54306 -0.0422421 -1.90462 -3.54306 -0.0422419 -1.90463 -8.30748e-012 -9.0191e-006 -5.27751e-005 13.5935 5.79471 -2.95395 -179.89 -10.9155 -89.4177 -26.2963 -59.7026 0.53981 -5.85077e-006 3.18055e-015 -3.18055e-015 -43.9857 -17.1307 -36.6648 179.982 5.91254 90.1793 49.3821 62.8183 -63.2742 -1.45569 1.59028e-015 -1.59028e-015 -33.4632 21.3317 23.5754 -9.8433 1.6888 -178.948 -19.1006 0 -1.98785e-016 22.5591 6.21013 -12.7426 90 -2.95692e-015 -3.97569e-016 -9.5423 -5.10414 179.157 -18.0173 9.93923e-017 -2.48481e-017 14.8204 -2.35788 4.7226 90 1.2424e-016 -1.98785e-016 
506.393 89.8882 -135.513 150.019 -81.7066 59.1335 -1.77283 -0.0377534 -0.951469 -3.54604 -0.0455493 -1.90598 -3.54604 -0.045549 -1.90598 -8.30748e-012 -9.0191e-006 -5.27751e-005 13.4758 5.75885 -2.93162 -179.896 -10.9475 -89.4533 -26.3936 -59.7663 0.470778 -5.98431e-006 3.18055e-015 -0 -44.0567 -17.155 -36.7301 179.972 5.92805 90.2702 49.7471 62.889 -63.6003 -1.54089 1.59028e-015 -0 -33.4518 21.3336 23.5608 -9.73625 1.6524 -179.004 -19.0798 -7.95139e-016 -1.98785e-016 22.5486 6.13762 -12.5904 90 1.56543e-015 1.98785e-016 -9.48395 -5.08596 179.107 -18.0555 9.93923e-017 -2.48481e-016 14.9262 -2.41785 4.84404 90 -5.87036e-016 -3.97569e-016 
506.386 89.8892 -135.565 150.205 -81.7144 59.3255 -1.78228 -0.0504295 -0.951095 -3.56515 -0.0707766 -1.90435 -3.56515 -0.0707763 -1.90436 -8.30828e-012 -9.0191e-006 -5.27751e-005 13.317 5.72898 -2.88937 -179.903 -10.9496 -89.4872 -26.3775 -59.7346 0.4387 -6.11539e-006 6.36111e-015 -1.59028e-015 -44.067 -17.1179 -36.6696 179.968 5.93829 90.3121 49.6283 62.8907 -63.4517 -1.55031 -3.18055e-015 -0 -33.5502 21.1575 23.3634 -9.67526 1.58321 -179.036 -19.0238 7.95139e-016 -1.98785e-016 22.5131 6.07457 -12.458 90 1.2424e-015 3.97569e-016 -9.45217 -4.99338 179.118 -18.0374 -9.93923e-017 2.23633e-016 14.8734 -2.37783 4.76315 90 1.86361e-017 -3.97569e-016 
